<svg width="27" height="36" viewBox="0 0 27 36" fill="none" xmlns="http://www.w3.org/2000/svg">
<path d="M13.6505 14.4C9.64673 14.3371 6.58824 11.0683 6.56116 7.2C6.6273 3.17001 9.87061 0.02826 13.6505 0C17.6579 0.1539 20.7115 3.2691 20.74 7.2C20.6612 11.2332 17.4343 14.3727 13.6505 14.4ZM19.3824 15.8936C24.4216 15.9534 26.9768 20.4425 27 24.9317V36H22.06L22.06 26.2724C21.9397 25.5999 21.4912 25.3718 21.0804 25.4378C20.6957 25.4995 20.344 25.8188 20.3254 26.2724V36H6.59938V26.2724C6.49431 25.6324 6.09343 25.3863 5.70343 25.4111C5.2858 25.4378 4.88067 25.7752 4.86472 26.2724V36H0.000209027V24.9317C-0.0287394 20.1475 2.9512 15.9291 7.6549 15.8936H19.3824Z" fill="#FF6A1B"/>
</svg>
