<svg width="32" height="36" viewBox="0 0 32 36" fill="none" xmlns="http://www.w3.org/2000/svg">
<path d="M7.25 0.5C5.325 0.5 3.75 2.075 3.75 4C3.75 5.925 5.325 7.5 7.25 7.5C9.175 7.5 10.75 5.9425 10.75 4C10.75 2.0575 9.1925 0.5 7.25 0.5ZM3.75 9.25C1.8075 9.25 0.25 10.8075 0.25 12.75V23.25H3.75V35.5H12.5V17.3L16.9275 25H21.1975L23 22.655V35.5H30V26.75H31.75V21.5C31.75 19.5575 30.1925 18 28.25 18H23.875C22.825 18 21.8975 18.455 21.25 19.19C20.6725 19.925 20.06 20.73 19.5 21.5H18.9575L12.5 10.405C12.22 9.915 11.135 9.25 9.875 9.25H3.75ZM26.5 11C25.0475 11 23.875 12.1725 23.875 13.625C23.875 15.0775 25.0475 16.25 26.5 16.25C27.9525 16.25 29.125 15.0775 29.125 13.625C29.125 12.1725 27.9525 11 26.5 11Z" fill="#FF6A1B"/>
</svg>
