<svg width="42" height="42" viewBox="0 0 42 42" fill="none" xmlns="http://www.w3.org/2000/svg">
<path d="M12.25 3.5C10.325 3.5 8.75 5.075 8.75 7C8.75 8.925 10.325 10.5 12.25 10.5C14.175 10.5 15.75 8.9425 15.75 7C15.75 5.0575 14.1925 3.5 12.25 3.5ZM8.75 12.25C6.8075 12.25 5.25 13.8075 5.25 15.75V26.25H8.75V38.5H17.5V20.3L21.9275 28H26.1975L28 25.655V38.5H35V29.75H36.75V24.5C36.75 22.5575 35.1925 21 33.25 21H28.875C27.825 21 26.8975 21.455 26.25 22.19C25.6725 22.925 25.06 23.73 24.5 24.5H23.9575L17.5 13.405C17.22 12.915 16.135 12.25 14.875 12.25H8.75ZM31.5 14C30.0475 14 28.875 15.1725 28.875 16.625C28.875 18.0775 30.0475 19.25 31.5 19.25C32.9525 19.25 34.125 18.0775 34.125 16.625C34.125 15.1725 32.9525 14 31.5 14Z" fill="#FF6A1B"/>
</svg>
