<svg width="24" height="24" viewBox="0 0 24 24" fill="none" xmlns="http://www.w3.org/2000/svg">
<path d="M12.3388 6.47657H11.2115C11.1083 6.47657 11.024 6.56094 11.024 6.66407V13.1164C11.024 13.1773 11.0521 13.2336 11.1013 13.2688L14.9755 16.0977C15.0599 16.1586 15.1771 16.1422 15.238 16.0578L15.9083 15.1438C15.9716 15.057 15.9529 14.9398 15.8685 14.8813L12.5263 12.4648V6.66407C12.5263 6.56094 12.4419 6.47657 12.3388 6.47657ZM17.4904 8.23907L21.1654 9.13672C21.2826 9.16485 21.3974 9.07578 21.3974 8.95625L21.4161 5.1711C21.4161 5.01407 21.2357 4.925 21.1138 5.02344L17.4201 7.9086C17.3921 7.93019 17.3709 7.95923 17.3587 7.99237C17.3466 8.02551 17.344 8.0614 17.3514 8.09592C17.3587 8.13044 17.3757 8.16219 17.4003 8.18751C17.4248 8.21284 17.4561 8.23071 17.4904 8.23907ZM21.4208 15.2961L20.0919 14.8391C20.0456 14.8232 19.9949 14.8261 19.9506 14.8471C19.9064 14.8681 19.8722 14.9056 19.8552 14.9516C19.8107 15.0711 19.7638 15.1883 19.7146 15.3055C19.2974 16.2922 18.6997 17.1805 17.9357 17.9422C17.1801 18.7001 16.2846 19.3042 15.299 19.7211C14.2778 20.1528 13.1802 20.3744 12.0716 20.3727C10.9513 20.3727 9.86615 20.1547 8.84427 19.7211C7.85858 19.3042 6.96313 18.7001 6.20755 17.9422C5.44583 17.1805 4.84818 16.2922 4.42865 15.3055C3.99931 14.2838 3.77934 13.1863 3.78177 12.0781C3.78177 10.9578 3.99974 9.87032 4.43333 8.84844C4.85052 7.86172 5.44818 6.97344 6.21224 6.21172C6.96782 5.4538 7.86327 4.84967 8.84896 4.43282C9.86615 3.99922 10.9536 3.78125 12.074 3.78125C13.1943 3.78125 14.2794 3.99922 15.3013 4.43282C16.287 4.84967 17.1824 5.4538 17.938 6.21172C18.1771 6.45313 18.4021 6.70391 18.6083 6.96875L20.0099 5.87188C18.1654 3.51407 15.2943 1.99766 12.0693 2C6.45364 2.00235 1.94427 6.56329 2.00052 12.1813C2.05677 17.7008 6.54505 22.1563 12.074 22.1563C16.4216 22.1563 20.1247 19.4 21.5357 15.5398C21.5708 15.4414 21.5193 15.3313 21.4208 15.2961Z" fill="#AAA8AD"/>
</svg>
