<svg width="127" height="127" viewBox="0 0 127 127" fill="none" xmlns="http://www.w3.org/2000/svg">
<circle cx="63.5" cy="63.5" r="54.7035" stroke="#DADADB" stroke-width="17.5931"/>
<path fill-rule="evenodd" clip-rule="evenodd" d="M109.407 63.5C109.407 88.8537 88.8537 109.407 63.5 109.407C38.2144 109.407 17.7036 88.9639 17.5936 63.7042H0.000366211C0.110454 98.6803 28.498 127 63.5 127C98.57 127 127 98.57 127 63.5C127 28.498 98.6803 0.110454 63.7042 0.000366211V17.5936C88.9639 17.7036 109.407 38.2144 109.407 63.5Z" fill="url(#paint0_linear)"/>
<path d="M60.1841 75.9091H57.5825L54.3418 77.9609V80.4155L57.3397 78.5362H57.4164V89H60.1841V75.9091ZM63.2954 89H72.6278V86.7372H67.1307V86.6477L69.0419 84.7749C71.7329 82.3203 72.4552 81.093 72.4552 79.6037C72.4552 77.3345 70.6015 75.7301 67.7954 75.7301C65.0469 75.7301 63.1612 77.3729 63.1676 79.9425H65.7947C65.7883 78.6896 66.581 77.9226 67.7763 77.9226C68.9268 77.9226 69.7834 78.6385 69.7834 79.7891C69.7834 80.831 69.1442 81.5469 67.9552 82.6911L63.2954 87.0057V89Z" fill="#5E5A62"/>
<path d="M42.3269 41.598H45.0243V49H46.5925V41.598H49.29V40.2727H42.3269V41.598ZM51.557 49.1321C52.584 49.1321 53.1976 48.6506 53.4789 48.1009H53.53V49H55.013V44.6193C55.013 42.8892 53.6025 42.3693 52.3539 42.3693C50.9775 42.3693 49.9206 42.983 49.5797 44.1761L51.0201 44.3807C51.1735 43.9332 51.6081 43.5497 52.3624 43.5497C53.0783 43.5497 53.4703 43.9162 53.4703 44.5597V44.5852C53.4703 45.0284 53.0059 45.0497 51.851 45.1733C50.5811 45.3097 49.3667 45.6889 49.3667 47.1634C49.3667 48.4503 50.3084 49.1321 51.557 49.1321ZM51.9576 47.9986C51.3141 47.9986 50.8539 47.7045 50.8539 47.1378C50.8539 46.5455 51.3695 46.2983 52.0598 46.2003C52.4647 46.1449 53.2743 46.0426 53.4746 45.8807V46.652C53.4746 47.3807 52.8865 47.9986 51.9576 47.9986ZM56.5641 49H58.1067V45.152C58.1067 44.321 58.7331 43.733 59.5811 43.733C59.8411 43.733 60.165 43.7798 60.2971 43.8224V42.4034C60.1564 42.3778 59.9135 42.3608 59.7431 42.3608C58.9931 42.3608 58.3667 42.7869 58.128 43.5455H58.0598V42.4545H56.5641V49ZM63.9501 49.1278C65.4757 49.1278 66.524 48.3821 66.7967 47.2443L65.3564 47.0824C65.1475 47.6364 64.6362 47.9261 63.9714 47.9261C62.9743 47.9261 62.3137 47.2699 62.301 46.1491H66.8606V45.6761C66.8606 43.3793 65.4799 42.3693 63.8691 42.3693C61.9941 42.3693 60.7711 43.7457 60.7711 45.7656C60.7711 47.8196 61.9771 49.1278 63.9501 49.1278ZM62.3052 45.1094C62.3521 44.2741 62.97 43.571 63.8904 43.571C64.7768 43.571 65.3734 44.2188 65.3819 45.1094H62.3052ZM71.481 42.4545H70.1216V41.9389C70.1216 41.4276 70.3347 41.142 70.91 41.142C71.1529 41.142 71.3574 41.1974 71.4853 41.2358L71.7963 40.0426C71.5961 39.9744 71.1571 39.8636 70.6245 39.8636C69.4867 39.8636 68.579 40.5156 68.579 41.8366V42.4545H67.6117V43.6477H68.579V49H70.1216V43.6477H71.481V42.4545ZM74.35 49.1321C75.377 49.1321 75.9906 48.6506 76.2718 48.1009H76.323V49H77.8059V44.6193C77.8059 42.8892 76.3954 42.3693 75.1468 42.3693C73.7704 42.3693 72.7136 42.983 72.3727 44.1761L73.813 44.3807C73.9664 43.9332 74.4011 43.5497 75.1554 43.5497C75.8713 43.5497 76.2633 43.9162 76.2633 44.5597V44.5852C76.2633 45.0284 75.7988 45.0497 74.644 45.1733C73.3741 45.3097 72.1596 45.6889 72.1596 47.1634C72.1596 48.4503 73.1014 49.1321 74.35 49.1321ZM74.7505 47.9986C74.1071 47.9986 73.6468 47.7045 73.6468 47.1378C73.6468 46.5455 74.1625 46.2983 74.8528 46.2003C75.2576 46.1449 76.0673 46.0426 76.2676 45.8807V46.652C76.2676 47.3807 75.6795 47.9986 74.7505 47.9986ZM84.5304 44.1847C84.3173 43.0767 83.4309 42.3693 81.8968 42.3693C80.3201 42.3693 79.2463 43.1449 79.2505 44.3551C79.2463 45.3097 79.8343 45.9403 81.0914 46.2003L82.2079 46.4347C82.8088 46.5668 83.09 46.8097 83.09 47.1804C83.09 47.6278 82.6042 47.9645 81.8713 47.9645C81.1639 47.9645 80.7037 47.6577 80.5716 47.0696L79.0673 47.2145C79.2591 48.4162 80.269 49.1278 81.8755 49.1278C83.5119 49.1278 84.6667 48.2798 84.671 47.0398C84.6667 46.1065 84.0659 45.5355 82.8301 45.267L81.7136 45.0284C81.0488 44.8793 80.7846 44.6491 80.7889 44.2699C80.7846 43.8267 81.2747 43.5199 81.9181 43.5199C82.6298 43.5199 83.0048 43.9077 83.1241 44.3381L84.5304 44.1847ZM36.4387 63.1278C38.0836 63.1278 39.1319 62.152 39.2427 60.7628H37.7683C37.6362 61.4659 37.1291 61.8707 36.4515 61.8707C35.4885 61.8707 34.8663 61.0653 34.8663 59.7273C34.8663 58.4062 35.5012 57.6136 36.4515 57.6136C37.193 57.6136 37.649 58.0909 37.7683 58.7216H39.2427C39.1362 57.3026 38.0282 56.3693 36.4302 56.3693C34.5126 56.3693 33.3024 57.7543 33.3024 59.7528C33.3024 61.7344 34.4828 63.1278 36.4387 63.1278ZM44.6813 60.2472C44.6813 61.2443 43.9696 61.7386 43.2878 61.7386C42.5463 61.7386 42.052 61.2145 42.052 60.3835V56.4545H40.5094V60.6222C40.5094 62.1946 41.4043 63.0852 42.6912 63.0852C43.6713 63.0852 44.3617 62.5696 44.66 61.8366H44.7282V63H46.2239V56.4545H44.6813V60.2472ZM47.8102 63H49.3528V59.0199C49.3528 58.2145 49.8897 57.669 50.5545 57.669C51.2065 57.669 51.6539 58.108 51.6539 58.7812V63H53.1667V58.9176C53.1667 58.1804 53.6056 57.669 54.3514 57.669C54.9735 57.669 55.4679 58.0355 55.4679 58.8452V63H57.0147V58.6065C57.0147 57.1449 56.171 56.3693 54.9693 56.3693C54.019 56.3693 53.2946 56.8381 53.0048 57.5668H52.9366C52.6852 56.8253 52.0502 56.3693 51.1681 56.3693C50.2903 56.3693 49.6341 56.821 49.3613 57.5668H49.2846V56.4545H47.8102V63ZM58.5797 65.4545H60.1223V61.9688H60.1863C60.4292 62.446 60.9363 63.1151 62.0613 63.1151C63.6039 63.1151 64.7587 61.892 64.7587 59.7358C64.7587 57.554 63.5698 56.3693 62.057 56.3693C60.9022 56.3693 60.4206 57.0639 60.1863 57.5369H60.0968V56.4545H58.5797V65.4545ZM60.0925 59.7273C60.0925 58.4574 60.638 57.6349 61.6309 57.6349C62.6578 57.6349 63.1863 58.5085 63.1863 59.7273C63.1863 60.9545 62.6493 61.8494 61.6309 61.8494C60.6465 61.8494 60.0925 60.9972 60.0925 59.7273ZM66.0797 63H67.6223V59.152C67.6223 58.321 68.2488 57.733 69.0968 57.733C69.3567 57.733 69.6806 57.7798 69.8127 57.8224V56.4034C69.6721 56.3778 69.4292 56.3608 69.2587 56.3608C68.5087 56.3608 67.8823 56.7869 67.6436 57.5455H67.5755V56.4545H66.0797V63ZM70.8375 63H72.3801V56.4545H70.8375V63ZM71.6131 55.5256C72.1032 55.5256 72.5037 55.1506 72.5037 54.6903C72.5037 54.2259 72.1032 53.8509 71.6131 53.8509C71.1188 53.8509 70.7182 54.2259 70.7182 54.6903C70.7182 55.1506 71.1188 55.5256 71.6131 55.5256ZM76.3954 63.1151C77.5204 63.1151 78.0275 62.446 78.2704 61.9688H78.3642V63H79.8812V54.2727H78.3343V57.5369H78.2704C78.036 57.0639 77.5545 56.3693 76.3997 56.3693C74.8869 56.3693 73.698 57.554 73.698 59.7358C73.698 61.892 74.8528 63.1151 76.3954 63.1151ZM76.8258 61.8494C75.8074 61.8494 75.2704 60.9545 75.2704 59.7273C75.2704 58.5085 75.7988 57.6349 76.8258 57.6349C77.8187 57.6349 78.3642 58.4574 78.3642 59.7273C78.3642 60.9972 77.8102 61.8494 76.8258 61.8494ZM83.4086 63.1321C84.4355 63.1321 85.0492 62.6506 85.3304 62.1009H85.3816V63H86.8645V58.6193C86.8645 56.8892 85.454 56.3693 84.2054 56.3693C82.829 56.3693 81.7722 56.983 81.4313 58.1761L82.8716 58.3807C83.025 57.9332 83.4597 57.5497 84.214 57.5497C84.9299 57.5497 85.3219 57.9162 85.3219 58.5597V58.5852C85.3219 59.0284 84.8574 59.0497 83.7026 59.1733C82.4327 59.3097 81.2182 59.6889 81.2182 61.1634C81.2182 62.4503 82.16 63.1321 83.4086 63.1321ZM83.8091 61.9986C83.1657 61.9986 82.7054 61.7045 82.7054 61.1378C82.7054 60.5455 83.2211 60.2983 83.9114 60.2003C84.3162 60.1449 85.1259 60.0426 85.3262 59.8807V60.652C85.3262 61.3807 84.7381 61.9986 83.8091 61.9986ZM93.589 58.1847C93.3759 57.0767 92.4895 56.3693 90.9554 56.3693C89.3787 56.3693 88.3049 57.1449 88.3091 58.3551C88.3049 59.3097 88.8929 59.9403 90.15 60.2003L91.2665 60.4347C91.8674 60.5668 92.1486 60.8097 92.1486 61.1804C92.1486 61.6278 91.6628 61.9645 90.9299 61.9645C90.2225 61.9645 89.7623 61.6577 89.6301 61.0696L88.1259 61.2145C88.3176 62.4162 89.3276 63.1278 90.9341 63.1278C92.5705 63.1278 93.7253 62.2798 93.7296 61.0398C93.7253 60.1065 93.1245 59.5355 91.8887 59.267L90.7722 59.0284C90.1074 58.8793 89.8432 58.6491 89.8475 58.2699C89.8432 57.8267 90.3333 57.5199 90.9767 57.5199C91.6884 57.5199 92.0634 57.9077 92.1827 58.3381L93.589 58.1847Z" fill="#AAA8AD"/>
<defs>
<linearGradient id="paint0_linear" x1="63.5002" y1="0.000366211" x2="63.5002" y2="127" gradientUnits="userSpaceOnUse">
<stop stop-color="#FF6A1B"/>
<stop offset="1" stop-color="#FF8C4F"/>
</linearGradient>
</defs>
</svg>
