<svg width="24" height="23" viewBox="0 0 24 23" fill="none" xmlns="http://www.w3.org/2000/svg">
<path d="M20.5776 1.17542C20.3638 0.817738 20.0622 0.521677 19.7019 0.315792C19.3416 0.109907 18.9349 0.00114592 18.5208 0H5.4792C4.6416 0 3.8532 0.450316 3.4224 1.17542L0.171601 6.63974C0.059107 6.82787 -0.000233958 7.04345 6.93215e-07 7.26316C0.00479314 8.43158 0.431393 9.55821 1.2 10.4323V20.5789C1.2 21.9142 2.2764 23 3.6 23H20.4C21.7236 23 22.8 21.9142 22.8 20.5789V10.4323C23.5686 9.55821 23.9952 8.43158 24 7.26316C24.0002 7.04345 23.9409 6.82787 23.8284 6.63974L20.5776 1.17542ZM21.5808 7.567C21.5067 8.15147 21.2242 8.68873 20.7861 9.07837C20.3479 9.46802 19.7841 9.68338 19.2 9.68421C17.8764 9.68421 16.8 8.59837 16.8 7.26316C16.8 7.18084 16.77 7.10821 16.7532 7.03074L16.7772 7.02589L15.864 2.42105H18.5208L21.5808 7.567ZM10.5828 2.42105H13.416L14.3916 7.34184C14.3496 8.63953 13.296 9.68421 12 9.68421C10.704 9.68421 9.6504 8.63953 9.6084 7.34184L10.5828 2.42105ZM5.4792 2.42105H8.136L7.224 7.02589L7.248 7.03074C7.23 7.10821 7.2 7.18084 7.2 7.26316C7.2 8.59837 6.1236 9.68421 4.8 9.68421C4.2159 9.68338 3.65209 9.46802 3.21393 9.07837C2.77578 8.68873 2.49327 8.15147 2.4192 7.567L5.4792 2.42105ZM9.6 20.5789V16.9474H14.4V20.5789H9.6ZM16.8 20.5789V16.9474C16.8 15.6122 15.7236 14.5263 14.4 14.5263H9.6C8.2764 14.5263 7.2 15.6122 7.2 16.9474V20.5789H3.6V11.9334C3.9852 12.0338 4.3824 12.1053 4.8 12.1053C5.48138 12.1056 6.15499 11.9593 6.77581 11.676C7.39663 11.3927 7.95036 10.979 8.4 10.4626C9.2796 11.4697 10.5684 12.1053 12 12.1053C13.4316 12.1053 14.7204 11.4697 15.6 10.4626C16.0496 10.979 16.6034 11.3927 17.2242 11.676C17.845 11.9593 18.5186 12.1056 19.2 12.1053C19.6176 12.1053 20.0148 12.0338 20.4 11.9334V20.5789H16.8Z" fill="#AAA8AD"/>
</svg>
